<svg width="124" height="32" viewBox="0 0 124 32" fill="none" xmlns="http://www.w3.org/2000/svg">
<rect width="124" height="32" fill="#D2E0D4"/>
<path d="M33.5 10C33.7762 10 34 10.2239 34 10.5V14.3333H35.6636C36.6762 14.3333 37.497 15.1541 37.497 16.1667V20.2944L38.6467 19.1462C38.8421 18.9511 39.1587 18.9513 39.3538 19.1467C39.5489 19.3421 39.5487 19.6587 39.3533 19.8538L37.3503 21.8541C37.155 22.0492 36.8386 22.0491 36.6434 21.8539L34.6431 19.8536C34.4478 19.6583 34.4478 19.3417 34.6431 19.1464C34.8383 18.9512 35.1549 18.9512 35.3502 19.1464L36.497 20.2932V16.1667C36.497 15.7064 36.1239 15.3333 35.6636 15.3333H31.3333C30.873 15.3333 30.4999 15.7064 30.4999 16.1667V20.2932L31.6467 19.1464C31.842 18.9512 32.1586 18.9512 32.3538 19.1464C32.5491 19.3417 32.5491 19.6583 32.3538 19.8536L30.3535 21.8539C30.1582 22.0492 29.8417 22.0492 29.6464 21.8539L27.646 19.8536C27.4508 19.6583 27.4508 19.3417 27.646 19.1465C27.8413 18.9512 28.1579 18.9512 28.3531 19.1464L29.4999 20.2932V16.1667C29.4999 15.1541 30.3208 14.3333 31.3333 14.3333H33V10.5C33 10.2239 33.2239 10 33.5 10Z" fill="#A3ACA3"/>
<path d="M54.544 21H52.962L52.08 18.578H48.202L47.32 21H45.78L49.266 11.76H51.058L54.544 21ZM48.622 17.36H51.66L50.148 13.048L48.622 17.36ZM56.1825 21V11.76H59.8225C60.9332 11.76 61.7452 11.984 62.2585 12.432C62.7719 12.88 63.0285 13.5007 63.0285 14.294C63.0285 14.7793 62.8885 15.2133 62.6085 15.596C62.3285 15.9693 61.9179 16.2073 61.3765 16.31V16.324C61.9739 16.4173 62.4359 16.6647 62.7625 17.066C63.0985 17.458 63.2665 17.9153 63.2665 18.438C63.2665 19.2313 62.9772 19.8567 62.3985 20.314C61.8199 20.7713 60.9799 21 59.8785 21H56.1825ZM57.6525 19.754H59.9485C60.5365 19.754 60.9752 19.6327 61.2645 19.39C61.5632 19.1473 61.7125 18.8067 61.7125 18.368C61.7125 17.9293 61.5632 17.5887 61.2645 17.346C60.9752 17.1033 60.5365 16.982 59.9485 16.982H57.6525V19.754ZM57.6525 15.736H59.7105C60.8865 15.736 61.4745 15.2833 61.4745 14.378C61.4745 13.4727 60.8865 13.02 59.7105 13.02H57.6525V15.736ZM73.1101 18.55C72.9234 19.11 72.6434 19.586 72.2701 19.978C71.8967 20.3607 71.4581 20.65 70.9541 20.846C70.4501 21.042 69.8947 21.14 69.2881 21.14C68.4014 21.14 67.6314 20.9487 66.9781 20.566C66.3247 20.1833 65.8207 19.6373 65.4661 18.928C65.1114 18.2187 64.9341 17.3693 64.9341 16.38C64.9341 15.3907 65.1114 14.5413 65.4661 13.832C65.8207 13.1227 66.3247 12.5767 66.9781 12.194C67.6314 11.8113 68.3967 11.62 69.2741 11.62C69.8807 11.62 70.4267 11.704 70.9121 11.872C71.4067 12.04 71.8267 12.292 72.1721 12.628C72.5174 12.964 72.7834 13.384 72.9701 13.888L71.5561 14.518C71.3694 13.9673 71.0987 13.566 70.7441 13.314C70.3894 13.0527 69.9274 12.922 69.3581 12.922C68.7887 12.922 68.2894 13.0573 67.8601 13.328C67.4307 13.5987 67.0947 13.9907 66.8521 14.504C66.6187 15.0173 66.5021 15.6427 66.5021 16.38C66.5021 17.108 66.6141 17.7333 66.8381 18.256C67.0621 18.7693 67.3841 19.1613 67.8041 19.432C68.2241 19.7027 68.7281 19.838 69.3161 19.838C69.8854 19.838 70.3754 19.6933 70.7861 19.404C71.2061 19.1053 71.5047 18.662 71.6821 18.074L73.1101 18.55Z" fill="#505450"/>
<path d="M85.6666 16C85.6666 16.6443 85.1443 17.1667 84.5 17.1667C83.8556 17.1667 83.3333 16.6443 83.3333 16C83.3333 15.3557 83.8556 14.8333 84.5 14.8333C85.1443 14.8333 85.6666 15.3557 85.6666 16ZM89.6666 16C89.6666 16.6443 89.1443 17.1667 88.5 17.1667C87.8556 17.1667 87.3333 16.6443 87.3333 16C87.3333 15.3557 87.8556 14.8333 88.5 14.8333C89.1443 14.8333 89.6666 15.3557 89.6666 16ZM92.5 17.1667C93.1443 17.1667 93.6666 16.6443 93.6666 16C93.6666 15.3557 93.1443 14.8333 92.5 14.8333C91.8556 14.8333 91.3333 15.3557 91.3333 16C91.3333 16.6443 91.8556 17.1667 92.5 17.1667Z" fill="#AFAFAF"/>
</svg>
