<svg width="251" height="32" viewBox="0 0 251 32" fill="none" xmlns="http://www.w3.org/2000/svg">
<rect width="251" height="32" fill="#DCCFFC"/>
<path d="M48 10C48.2762 10 48.5 10.2239 48.5 10.5V14.3333H50.1636C51.1762 14.3333 51.997 15.1541 51.997 16.1667V20.2944L53.1467 19.1462C53.3421 18.9511 53.6587 18.9513 53.8538 19.1467C54.0489 19.3421 54.0487 19.6587 53.8533 19.8538L51.8503 21.8541C51.655 22.0492 51.3386 22.0491 51.1434 21.8539L49.1431 19.8536C48.9478 19.6583 48.9478 19.3417 49.1431 19.1464C49.3383 18.9512 49.6549 18.9512 49.8502 19.1464L50.997 20.2932V16.1667C50.997 15.7064 50.6239 15.3333 50.1636 15.3333H45.8333C45.373 15.3333 44.9999 15.7064 44.9999 16.1667V20.2932L46.1467 19.1464C46.342 18.9512 46.6586 18.9512 46.8538 19.1464C47.0491 19.3417 47.0491 19.6583 46.8538 19.8536L44.8535 21.8539C44.6582 22.0492 44.3417 22.0492 44.1464 21.8539L42.146 19.8536C41.9508 19.6583 41.9508 19.3417 42.146 19.1465C42.3413 18.9512 42.6579 18.9512 42.8531 19.1464L43.9999 20.2932V16.1667C43.9999 15.1541 44.8208 14.3333 45.8333 14.3333H47.5V10.5C47.5 10.2239 47.7239 10 48 10Z" fill="white"/>
<path d="M69.044 21H67.462L66.58 18.578H62.702L61.82 21H60.28L63.766 11.76H65.558L69.044 21ZM63.122 17.36H66.16L64.648 13.048L63.122 17.36ZM70.4725 21V14H71.8025L71.9005 15.82L71.7045 15.624C71.8352 15.2227 72.0219 14.8913 72.2645 14.63C72.5165 14.3593 72.8105 14.1633 73.1465 14.042C73.4919 13.9207 73.8559 13.86 74.2385 13.86C74.7332 13.86 75.1765 13.958 75.5685 14.154C75.9699 14.3407 76.2872 14.6253 76.5205 15.008C76.7539 15.3907 76.8705 15.876 76.8705 16.464V21H75.3725V16.926C75.3725 16.2353 75.2279 15.7593 74.9385 15.498C74.6585 15.2273 74.3039 15.092 73.8745 15.092C73.5665 15.092 73.2679 15.1667 72.9785 15.316C72.6892 15.456 72.4465 15.6847 72.2505 16.002C72.0639 16.3193 71.9705 16.744 71.9705 17.276V21H70.4725ZM81.8005 21.14C81.1005 21.14 80.4612 21.0047 79.8825 20.734C79.3038 20.4633 78.8465 20.0807 78.5105 19.586L79.5465 18.69C79.7518 19.0727 80.0458 19.3807 80.4285 19.614C80.8205 19.838 81.2872 19.95 81.8285 19.95C82.2578 19.95 82.5985 19.8753 82.8505 19.726C83.1025 19.5767 83.2285 19.3667 83.2285 19.096C83.2285 18.9187 83.1678 18.7647 83.0465 18.634C82.9345 18.494 82.7152 18.3867 82.3885 18.312L80.9185 18.004C80.1718 17.8547 79.6398 17.6167 79.3225 17.29C79.0052 16.954 78.8465 16.5293 78.8465 16.016C78.8465 15.6333 78.9585 15.2787 79.1825 14.952C79.4065 14.6253 79.7332 14.364 80.1625 14.168C80.6012 13.9627 81.1238 13.86 81.7305 13.86C82.4305 13.86 83.0278 13.986 83.5225 14.238C84.0172 14.4807 84.3952 14.8307 84.6565 15.288L83.6205 16.156C83.4432 15.7827 83.1818 15.5073 82.8365 15.33C82.4912 15.1433 82.1318 15.05 81.7585 15.05C81.4598 15.05 81.2032 15.0873 80.9885 15.162C80.7738 15.2367 80.6105 15.3393 80.4985 15.47C80.3865 15.6007 80.3305 15.7547 80.3305 15.932C80.3305 16.1187 80.4005 16.282 80.5405 16.422C80.6805 16.562 80.9325 16.6693 81.2965 16.744L82.8925 17.08C83.5645 17.2107 84.0358 17.4347 84.3065 17.752C84.5865 18.06 84.7265 18.438 84.7265 18.886C84.7265 19.334 84.6098 19.7307 84.3765 20.076C84.1432 20.412 83.8072 20.6733 83.3685 20.86C82.9298 21.0467 82.4072 21.14 81.8005 21.14ZM95.1129 14H96.7369L94.3849 21H92.7469L90.9829 15.806L89.3169 21H87.6789L85.3409 14H86.9509L88.5469 19.53L90.2829 14H91.7809L93.5169 19.53L95.1129 14ZM101.06 21.14C100.36 21.14 99.7444 20.9953 99.2124 20.706C98.6804 20.4167 98.265 20.0013 97.9664 19.46C97.677 18.9093 97.5324 18.256 97.5324 17.5C97.5324 16.744 97.677 16.0953 97.9664 15.554C98.265 15.0033 98.6757 14.5833 99.1984 14.294C99.721 14.0047 100.314 13.86 100.976 13.86C101.658 13.86 102.236 14 102.712 14.28C103.188 14.56 103.552 14.9427 103.804 15.428C104.056 15.9133 104.182 16.464 104.182 17.08C104.182 17.248 104.178 17.4067 104.168 17.556C104.159 17.7053 104.145 17.836 104.126 17.948H98.4984V16.8H103.468L102.726 17.024C102.726 16.3893 102.568 15.904 102.25 15.568C101.933 15.2227 101.499 15.05 100.948 15.05C100.547 15.05 100.197 15.1433 99.8984 15.33C99.5997 15.5167 99.371 15.7967 99.2124 16.17C99.0537 16.534 98.9744 16.982 98.9744 17.514C98.9744 18.0367 99.0584 18.48 99.2264 18.844C99.3944 19.208 99.6324 19.4833 99.9404 19.67C100.248 19.8567 100.612 19.95 101.032 19.95C101.499 19.95 101.877 19.8613 102.166 19.684C102.456 19.5067 102.684 19.2593 102.852 18.942L104.042 19.502C103.874 19.838 103.646 20.132 103.356 20.384C103.076 20.6267 102.74 20.8133 102.348 20.944C101.956 21.0747 101.527 21.14 101.06 21.14ZM106.074 21V14H107.348L107.488 15.26C107.675 14.8027 107.95 14.4573 108.314 14.224C108.687 13.9813 109.145 13.86 109.686 13.86C109.826 13.86 109.966 13.874 110.106 13.902C110.246 13.9207 110.363 13.9533 110.456 14L110.246 15.316C110.143 15.2787 110.027 15.2507 109.896 15.232C109.775 15.204 109.607 15.19 109.392 15.19C109.103 15.19 108.818 15.2693 108.538 15.428C108.258 15.5773 108.025 15.806 107.838 16.114C107.661 16.422 107.572 16.814 107.572 17.29V21H106.074ZM120.169 16.506C120.169 16.0393 120.038 15.68 119.777 15.428C119.525 15.1667 119.175 15.036 118.727 15.036C118.307 15.036 117.948 15.134 117.649 15.33C117.35 15.526 117.131 15.8433 116.991 16.282L115.731 15.75C115.908 15.1807 116.254 14.7233 116.767 14.378C117.29 14.0327 117.962 13.86 118.783 13.86C119.343 13.86 119.838 13.9533 120.267 14.14C120.696 14.3173 121.032 14.588 121.275 14.952C121.527 15.316 121.653 15.7827 121.653 16.352V19.474C121.653 19.8193 121.826 19.992 122.171 19.992C122.339 19.992 122.502 19.9687 122.661 19.922L122.577 20.958C122.362 21.0607 122.092 21.112 121.765 21.112C121.466 21.112 121.196 21.0607 120.953 20.958C120.72 20.846 120.533 20.6827 120.393 20.468C120.262 20.244 120.197 19.9687 120.197 19.642V19.544L120.505 19.53C120.421 19.894 120.248 20.1973 119.987 20.44C119.726 20.6733 119.422 20.8507 119.077 20.972C118.732 21.084 118.382 21.14 118.027 21.14C117.588 21.14 117.192 21.07 116.837 20.93C116.492 20.79 116.216 20.58 116.011 20.3C115.815 20.0107 115.717 19.656 115.717 19.236C115.717 18.7133 115.885 18.284 116.221 17.948C116.566 17.612 117.052 17.3833 117.677 17.262L120.393 16.73L120.379 17.78L118.405 18.186C118.013 18.2607 117.719 18.368 117.523 18.508C117.327 18.648 117.229 18.8533 117.229 19.124C117.229 19.3853 117.327 19.5953 117.523 19.754C117.728 19.9033 117.999 19.978 118.335 19.978C118.568 19.978 118.792 19.95 119.007 19.894C119.231 19.838 119.432 19.7493 119.609 19.628C119.786 19.4973 119.922 19.334 120.015 19.138C120.118 18.9327 120.169 18.69 120.169 18.41V16.506ZM133.343 23.94V18.956L133.553 19.152C133.487 19.5627 133.333 19.9173 133.091 20.216C132.857 20.5147 132.563 20.7433 132.209 20.902C131.863 21.0607 131.485 21.14 131.075 21.14C130.496 21.14 129.973 20.9953 129.507 20.706C129.04 20.4167 128.667 20.0013 128.387 19.46C128.116 18.9093 127.981 18.2513 127.981 17.486C127.981 16.7207 128.125 16.0673 128.415 15.526C128.704 14.9847 129.091 14.574 129.577 14.294C130.062 14.0047 130.594 13.86 131.173 13.86C131.583 13.86 131.957 13.944 132.293 14.112C132.638 14.2707 132.923 14.4993 133.147 14.798C133.38 15.0873 133.534 15.4327 133.609 15.834L133.399 15.904L133.511 14H134.841V23.94H133.343ZM131.397 19.922C131.789 19.922 132.129 19.824 132.419 19.628C132.708 19.432 132.932 19.152 133.091 18.788C133.259 18.4147 133.343 17.976 133.343 17.472C133.343 16.9493 133.263 16.5107 133.105 16.156C132.946 15.8013 132.722 15.5307 132.433 15.344C132.143 15.1573 131.807 15.064 131.425 15.064C130.818 15.064 130.342 15.2833 129.997 15.722C129.651 16.1513 129.479 16.744 129.479 17.5C129.479 18.256 129.647 18.8487 129.983 19.278C130.319 19.7073 130.79 19.922 131.397 19.922ZM139.656 21.14C139.199 21.14 138.774 21.056 138.382 20.888C137.999 20.72 137.691 20.4493 137.458 20.076C137.225 19.7027 137.108 19.2173 137.108 18.62V14H138.606V18.242C138.606 18.8767 138.741 19.3153 139.012 19.558C139.283 19.7913 139.661 19.908 140.146 19.908C140.379 19.908 140.603 19.8707 140.818 19.796C141.042 19.712 141.243 19.586 141.42 19.418C141.597 19.2407 141.733 19.0167 141.826 18.746C141.929 18.4753 141.98 18.158 141.98 17.794V14H143.478V21H142.162L142.092 19.866C141.849 20.3047 141.523 20.6267 141.112 20.832C140.701 21.0373 140.216 21.14 139.656 21.14ZM148.898 21.14C148.198 21.14 147.582 20.9953 147.05 20.706C146.518 20.4167 146.103 20.0013 145.804 19.46C145.515 18.9093 145.37 18.256 145.37 17.5C145.37 16.744 145.515 16.0953 145.804 15.554C146.103 15.0033 146.514 14.5833 147.036 14.294C147.559 14.0047 148.152 13.86 148.814 13.86C149.496 13.86 150.074 14 150.55 14.28C151.026 14.56 151.39 14.9427 151.642 15.428C151.894 15.9133 152.02 16.464 152.02 17.08C152.02 17.248 152.016 17.4067 152.006 17.556C151.997 17.7053 151.983 17.836 151.964 17.948H146.336V16.8H151.306L150.564 17.024C150.564 16.3893 150.406 15.904 150.088 15.568C149.771 15.2227 149.337 15.05 148.786 15.05C148.385 15.05 148.035 15.1433 147.736 15.33C147.438 15.5167 147.209 15.7967 147.05 16.17C146.892 16.534 146.812 16.982 146.812 17.514C146.812 18.0367 146.896 18.48 147.064 18.844C147.232 19.208 147.47 19.4833 147.778 19.67C148.086 19.8567 148.45 19.95 148.87 19.95C149.337 19.95 149.715 19.8613 150.004 19.684C150.294 19.5067 150.522 19.2593 150.69 18.942L151.88 19.502C151.712 19.838 151.484 20.132 151.194 20.384C150.914 20.6267 150.578 20.8133 150.186 20.944C149.794 21.0747 149.365 21.14 148.898 21.14ZM156.572 21.14C155.872 21.14 155.233 21.0047 154.654 20.734C154.075 20.4633 153.618 20.0807 153.282 19.586L154.318 18.69C154.523 19.0727 154.817 19.3807 155.2 19.614C155.592 19.838 156.059 19.95 156.6 19.95C157.029 19.95 157.37 19.8753 157.622 19.726C157.874 19.5767 158 19.3667 158 19.096C158 18.9187 157.939 18.7647 157.818 18.634C157.706 18.494 157.487 18.3867 157.16 18.312L155.69 18.004C154.943 17.8547 154.411 17.6167 154.094 17.29C153.777 16.954 153.618 16.5293 153.618 16.016C153.618 15.6333 153.73 15.2787 153.954 14.952C154.178 14.6253 154.505 14.364 154.934 14.168C155.373 13.9627 155.895 13.86 156.502 13.86C157.202 13.86 157.799 13.986 158.294 14.238C158.789 14.4807 159.167 14.8307 159.428 15.288L158.392 16.156C158.215 15.7827 157.953 15.5073 157.608 15.33C157.263 15.1433 156.903 15.05 156.53 15.05C156.231 15.05 155.975 15.0873 155.76 15.162C155.545 15.2367 155.382 15.3393 155.27 15.47C155.158 15.6007 155.102 15.7547 155.102 15.932C155.102 16.1187 155.172 16.282 155.312 16.422C155.452 16.562 155.704 16.6693 156.068 16.744L157.664 17.08C158.336 17.2107 158.807 17.4347 159.078 17.752C159.358 18.06 159.498 18.438 159.498 18.886C159.498 19.334 159.381 19.7307 159.148 20.076C158.915 20.412 158.579 20.6733 158.14 20.86C157.701 21.0467 157.179 21.14 156.572 21.14ZM163.366 11.942V18.9C163.366 19.2453 163.455 19.4973 163.632 19.656C163.819 19.8147 164.066 19.894 164.374 19.894C164.626 19.894 164.845 19.8567 165.032 19.782C165.219 19.698 165.391 19.586 165.55 19.446L165.886 20.538C165.671 20.7247 165.405 20.874 165.088 20.986C164.78 21.0887 164.435 21.14 164.052 21.14C163.651 21.14 163.282 21.0747 162.946 20.944C162.61 20.8133 162.349 20.6033 162.162 20.314C161.975 20.0153 161.877 19.628 161.868 19.152V12.362L163.366 11.942ZM165.774 14V15.176H160.524V14H165.774ZM168.012 12.824C167.685 12.824 167.433 12.7447 167.256 12.586C167.088 12.418 167.004 12.1847 167.004 11.886C167.004 11.5873 167.088 11.3587 167.256 11.2C167.433 11.0413 167.685 10.962 168.012 10.962C168.329 10.962 168.572 11.0413 168.74 11.2C168.917 11.3587 169.006 11.5873 169.006 11.886C169.006 12.1847 168.917 12.418 168.74 12.586C168.572 12.7447 168.329 12.824 168.012 12.824ZM168.754 14V21H167.256V14H168.754ZM174.136 13.86C174.817 13.86 175.419 14.0047 175.942 14.294C176.464 14.5833 176.87 15.0033 177.16 15.554C177.458 16.0953 177.608 16.744 177.608 17.5C177.608 18.256 177.458 18.9093 177.16 19.46C176.87 20.0013 176.464 20.4167 175.942 20.706C175.419 20.9953 174.817 21.14 174.136 21.14C173.454 21.14 172.852 20.9953 172.33 20.706C171.807 20.4167 171.396 20.0013 171.098 19.46C170.799 18.9093 170.65 18.256 170.65 17.5C170.65 16.744 170.799 16.0953 171.098 15.554C171.396 15.0033 171.807 14.5833 172.33 14.294C172.852 14.0047 173.454 13.86 174.136 13.86ZM174.136 15.036C173.716 15.036 173.356 15.134 173.058 15.33C172.768 15.5167 172.544 15.792 172.386 16.156C172.227 16.52 172.148 16.968 172.148 17.5C172.148 18.0227 172.227 18.4707 172.386 18.844C172.544 19.208 172.768 19.488 173.058 19.684C173.356 19.8707 173.716 19.964 174.136 19.964C174.556 19.964 174.91 19.8707 175.2 19.684C175.489 19.488 175.713 19.208 175.872 18.844C176.03 18.4707 176.11 18.0227 176.11 17.5C176.11 16.968 176.03 16.52 175.872 16.156C175.713 15.792 175.489 15.5167 175.2 15.33C174.91 15.134 174.556 15.036 174.136 15.036ZM179.492 21V14H180.822L180.92 15.82L180.724 15.624C180.855 15.2227 181.041 14.8913 181.284 14.63C181.536 14.3593 181.83 14.1633 182.166 14.042C182.511 13.9207 182.875 13.86 183.258 13.86C183.753 13.86 184.196 13.958 184.588 14.154C184.989 14.3407 185.307 14.6253 185.54 15.008C185.773 15.3907 185.89 15.876 185.89 16.464V21H184.392V16.926C184.392 16.2353 184.247 15.7593 183.958 15.498C183.678 15.2273 183.323 15.092 182.894 15.092C182.586 15.092 182.287 15.1667 181.998 15.316C181.709 15.456 181.466 15.6847 181.27 16.002C181.083 16.3193 180.99 16.744 180.99 17.276V21H179.492Z" fill="#463E59"/>
<path d="M198.167 16C198.167 16.6443 197.644 17.1667 197 17.1667C196.356 17.1667 195.833 16.6443 195.833 16C195.833 15.3557 196.356 14.8333 197 14.8333C197.644 14.8333 198.167 15.3557 198.167 16ZM202.167 16C202.167 16.6443 201.644 17.1667 201 17.1667C200.356 17.1667 199.833 16.6443 199.833 16C199.833 15.3557 200.356 14.8333 201 14.8333C201.644 14.8333 202.167 15.3557 202.167 16ZM205 17.1667C205.644 17.1667 206.167 16.6443 206.167 16C206.167 15.3557 205.644 14.8333 205 14.8333C204.356 14.8333 203.833 15.3557 203.833 16C203.833 16.6443 204.356 17.1667 205 17.1667Z" fill="#AFAFAF"/>
</svg>
