<svg width="150" height="36" viewBox="0 0 150 36" fill="none" xmlns="http://www.w3.org/2000/svg">
<rect width="150" height="36" rx="6" fill="#4B6A4F"/>
<path d="M34.0001 10.5C34.3452 10.5 34.6251 10.7798 34.6251 11.125V15.9167H36.7046C37.9702 15.9167 38.9963 16.9427 38.9963 18.2083V23.368L40.4334 21.9328C40.6777 21.6888 41.0734 21.6891 41.3173 21.9334C41.5612 22.1776 41.5609 22.5733 41.3167 22.8172L38.8129 25.3177C38.5688 25.5615 38.1733 25.5613 37.9293 25.3174L35.4289 22.8169C35.1848 22.5729 35.1848 22.1771 35.4289 21.9331C35.673 21.689 36.0687 21.689 36.3128 21.9331L37.7463 23.3665V18.2083C37.7463 17.633 37.2799 17.1667 36.7046 17.1667H31.2916C30.7164 17.1667 30.25 17.633 30.25 18.2083V23.3665L31.6835 21.9331C31.9275 21.689 32.3233 21.689 32.5673 21.9331C32.8114 22.1771 32.8114 22.5729 32.5673 22.8169L30.0669 25.3174C29.8228 25.5614 29.4271 25.5614 29.183 25.3174L26.6826 22.8169C26.4385 22.5729 26.4385 22.1771 26.6826 21.9331C26.9266 21.689 27.3224 21.689 27.5664 21.9331L29 23.3666V18.2083C29 16.9427 30.026 15.9167 31.2916 15.9167H33.3751V11.125C33.3751 10.7798 33.6549 10.5 34.0001 10.5Z" fill="white"/>
<path d="M56.946 13.76V23H55.168L51.598 17.176L50.702 15.538H50.688L50.744 17.036V23H49.372V13.76H51.136L54.692 19.57L55.602 21.236H55.616L55.56 19.724V13.76H56.946ZM62.4549 23.14C61.7549 23.14 61.1389 22.9953 60.6069 22.706C60.0749 22.4167 59.6596 22.0013 59.3609 21.46C59.0716 20.9093 58.9269 20.256 58.9269 19.5C58.9269 18.744 59.0716 18.0953 59.3609 17.554C59.6596 17.0033 60.0702 16.5833 60.5929 16.294C61.1156 16.0047 61.7082 15.86 62.3709 15.86C63.0522 15.86 63.6309 16 64.1069 16.28C64.5829 16.56 64.9469 16.9427 65.1989 17.428C65.4509 17.9133 65.5769 18.464 65.5769 19.08C65.5769 19.248 65.5722 19.4067 65.5629 19.556C65.5536 19.7053 65.5396 19.836 65.5209 19.948H59.8929V18.8H64.8629L64.1209 19.024C64.1209 18.3893 63.9622 17.904 63.6449 17.568C63.3276 17.2227 62.8936 17.05 62.3429 17.05C61.9416 17.05 61.5916 17.1433 61.2929 17.33C60.9942 17.5167 60.7656 17.7967 60.6069 18.17C60.4482 18.534 60.3689 18.982 60.3689 19.514C60.3689 20.0367 60.4529 20.48 60.6209 20.844C60.7889 21.208 61.0269 21.4833 61.3349 21.67C61.6429 21.8567 62.0069 21.95 62.4269 21.95C62.8936 21.95 63.2716 21.8613 63.5609 21.684C63.8502 21.5067 64.0789 21.2593 64.2469 20.942L65.4369 21.502C65.2689 21.838 65.0402 22.132 64.7509 22.384C64.4709 22.6267 64.1349 22.8133 63.7429 22.944C63.3509 23.0747 62.9216 23.14 62.4549 23.14ZM76.1949 16H77.8189L75.4669 23H73.8289L72.0649 17.806L70.3989 23H68.7609L66.4229 16H68.0329L69.6289 21.53L71.3649 16H72.8629L74.5989 21.53L76.1949 16ZM90.9092 23H89.3272L88.4452 20.578H84.5672L83.6852 23H82.1452L85.6312 13.76H87.4232L90.9092 23ZM84.9872 19.36H88.0252L86.5132 15.048L84.9872 19.36ZM95.2114 15.86C95.7714 15.86 96.2474 15.944 96.6394 16.112C97.0407 16.2707 97.3767 16.4993 97.6474 16.798C97.9181 17.0967 98.1234 17.4373 98.2634 17.82L96.8494 18.38C96.7281 17.9507 96.5321 17.624 96.2614 17.4C96.0001 17.1667 95.6547 17.05 95.2254 17.05C94.8054 17.05 94.4461 17.148 94.1474 17.344C93.8487 17.5307 93.6201 17.806 93.4614 18.17C93.3121 18.534 93.2374 18.982 93.2374 19.514C93.2374 20.0367 93.3167 20.48 93.4754 20.844C93.6341 21.208 93.8627 21.4833 94.1614 21.67C94.4601 21.8567 94.8147 21.95 95.2254 21.95C95.5427 21.95 95.8181 21.8987 96.0514 21.796C96.2847 21.684 96.4761 21.53 96.6254 21.334C96.7841 21.1287 96.8914 20.8813 96.9474 20.592L98.3054 21.054C98.1747 21.474 97.9694 21.8427 97.6894 22.16C97.4187 22.468 97.0781 22.7107 96.6674 22.888C96.2567 23.056 95.7854 23.14 95.2534 23.14C94.5627 23.14 93.9514 22.9953 93.4194 22.706C92.8874 22.4167 92.4721 22.0013 92.1734 21.46C91.8841 20.9093 91.7394 20.256 91.7394 19.5C91.7394 18.744 91.8841 18.0953 92.1734 17.554C92.4721 17.0033 92.8827 16.5833 93.4054 16.294C93.9374 16.0047 94.5394 15.86 95.2114 15.86ZM102.093 13.942V20.9C102.093 21.2453 102.181 21.4973 102.359 21.656C102.545 21.8147 102.793 21.894 103.101 21.894C103.353 21.894 103.572 21.8567 103.759 21.782C103.945 21.698 104.118 21.586 104.277 21.446L104.613 22.538C104.398 22.7247 104.132 22.874 103.815 22.986C103.507 23.0887 103.161 23.14 102.779 23.14C102.377 23.14 102.009 23.0747 101.673 22.944C101.337 22.8133 101.075 22.6033 100.889 22.314C100.702 22.0153 100.604 21.628 100.595 21.152V14.362L102.093 13.942ZM104.501 16V17.176H99.2507V16H104.501ZM106.738 14.824C106.412 14.824 106.16 14.7447 105.982 14.586C105.814 14.418 105.73 14.1847 105.73 13.886C105.73 13.5873 105.814 13.3587 105.982 13.2C106.16 13.0413 106.412 12.962 106.738 12.962C107.056 12.962 107.298 13.0413 107.466 13.2C107.644 13.3587 107.732 13.5873 107.732 13.886C107.732 14.1847 107.644 14.418 107.466 14.586C107.298 14.7447 107.056 14.824 106.738 14.824ZM107.48 16V23H105.982V16H107.48ZM112.862 15.86C113.543 15.86 114.145 16.0047 114.668 16.294C115.191 16.5833 115.597 17.0033 115.886 17.554C116.185 18.0953 116.334 18.744 116.334 19.5C116.334 20.256 116.185 20.9093 115.886 21.46C115.597 22.0013 115.191 22.4167 114.668 22.706C114.145 22.9953 113.543 23.14 112.862 23.14C112.181 23.14 111.579 22.9953 111.056 22.706C110.533 22.4167 110.123 22.0013 109.824 21.46C109.525 20.9093 109.376 20.256 109.376 19.5C109.376 18.744 109.525 18.0953 109.824 17.554C110.123 17.0033 110.533 16.5833 111.056 16.294C111.579 16.0047 112.181 15.86 112.862 15.86ZM112.862 17.036C112.442 17.036 112.083 17.134 111.784 17.33C111.495 17.5167 111.271 17.792 111.112 18.156C110.953 18.52 110.874 18.968 110.874 19.5C110.874 20.0227 110.953 20.4707 111.112 20.844C111.271 21.208 111.495 21.488 111.784 21.684C112.083 21.8707 112.442 21.964 112.862 21.964C113.282 21.964 113.637 21.8707 113.926 21.684C114.215 21.488 114.439 21.208 114.598 20.844C114.757 20.4707 114.836 20.0227 114.836 19.5C114.836 18.968 114.757 18.52 114.598 18.156C114.439 17.792 114.215 17.5167 113.926 17.33C113.637 17.134 113.282 17.036 112.862 17.036ZM118.219 23V16H119.549L119.647 17.82L119.451 17.624C119.581 17.2227 119.768 16.8913 120.011 16.63C120.263 16.3593 120.557 16.1633 120.893 16.042C121.238 15.9207 121.602 15.86 121.985 15.86C122.479 15.86 122.923 15.958 123.315 16.154C123.716 16.3407 124.033 16.6253 124.267 17.008C124.5 17.3907 124.617 17.876 124.617 18.464V23H123.119V18.926C123.119 18.2353 122.974 17.7593 122.685 17.498C122.405 17.2273 122.05 17.092 121.621 17.092C121.313 17.092 121.014 17.1667 120.725 17.316C120.435 17.456 120.193 17.6847 119.997 18.002C119.81 18.3193 119.717 18.744 119.717 19.276V23H118.219Z" fill="white"/>
</svg>
