<svg width="89" height="36" viewBox="0 0 89 36" fill="none" xmlns="http://www.w3.org/2000/svg">
<rect x="0.5" y="0.5" width="88" height="35" rx="5.5" fill="white"/>
<rect x="0.5" y="0.5" width="88" height="35" rx="5.5" stroke="#EEEEEE"/>
<path d="M23.2082 10.9239C23.5533 10.924 23.8333 10.6443 23.8333 10.2991C23.8333 9.95392 23.5537 9.67402 23.2085 9.67392L12.3752 9.67078C12.03 9.67068 11.75 9.95043 11.75 10.2956C11.75 10.6408 12.0296 10.9207 12.3748 10.9208L23.2082 10.9239ZM17.7069 26.3308L17.7917 26.3365C18.1081 26.3365 18.3696 26.1013 18.411 25.7963L18.4167 25.7115L18.4158 14.3073L21.5173 17.4076C21.7393 17.6294 22.0865 17.6496 22.3311 17.468L22.4012 17.4075C22.6231 17.1856 22.6432 16.8383 22.4617 16.5937L22.4011 16.5236L18.2364 12.3598C18.0146 12.138 17.6677 12.1178 17.423 12.2991L17.3529 12.3595L13.1834 16.5233C12.9391 16.7673 12.9388 17.163 13.1828 17.4072C13.4045 17.6293 13.7517 17.6497 13.9965 17.4683L14.0666 17.4078L17.1658 14.3131L17.1667 25.7115C17.1667 26.0279 17.4018 26.2894 17.7069 26.3308Z" fill="#545454"/>
<path d="M33.512 23V13.76H39.994V14.81H34.632V17.792H38.804V18.842H34.632V21.95H40.204V23H33.512ZM42.9017 16L44.9877 18.926L45.0577 19.024L47.9277 23H46.5557L44.3857 19.962L44.2597 19.808L41.5017 16H42.9017ZM47.8857 16L45.1137 19.738H45.0437L42.6357 23H41.3337L44.3857 18.982H44.4697L46.5697 16H47.8857ZM49.6946 25.94V16H50.6746L50.7726 17.708L50.6186 17.512C50.7399 17.1853 50.9219 16.9007 51.1646 16.658C51.4072 16.406 51.7012 16.21 52.0466 16.07C52.3919 15.93 52.7652 15.86 53.1666 15.86C53.7359 15.86 54.2586 16.0047 54.7346 16.294C55.2199 16.5833 55.6072 16.9987 55.8966 17.54C56.1859 18.0813 56.3306 18.7347 56.3306 19.5C56.3306 20.256 56.1812 20.9093 55.8826 21.46C55.5932 22.0013 55.2059 22.4167 54.7206 22.706C54.2352 22.9953 53.7032 23.14 53.1246 23.14C52.5459 23.14 52.0372 23 51.5986 22.72C51.1692 22.4307 50.8612 22.0667 50.6746 21.628L50.8146 21.418V25.94H49.6946ZM53.0126 22.16C53.7032 22.16 54.2399 21.9173 54.6226 21.432C55.0146 20.9467 55.2106 20.3027 55.2106 19.5C55.2106 18.6973 55.0192 18.0533 54.6366 17.568C54.2632 17.0827 53.7359 16.84 53.0546 16.84C52.6066 16.84 52.2146 16.952 51.8786 17.176C51.5426 17.3907 51.2812 17.6987 51.0946 18.1C50.9079 18.492 50.8146 18.9587 50.8146 19.5C50.8146 20.032 50.9032 20.4987 51.0806 20.9C51.2672 21.3013 51.5239 21.614 51.8506 21.838C52.1866 22.0527 52.5739 22.16 53.0126 22.16ZM61.3699 15.86C62.0326 15.86 62.6159 16.0047 63.1199 16.294C63.6333 16.5833 64.0346 17.0033 64.3239 17.554C64.6133 18.0953 64.7579 18.744 64.7579 19.5C64.7579 20.256 64.6133 20.9093 64.3239 21.46C64.0346 22.0013 63.6333 22.4167 63.1199 22.706C62.6159 22.9953 62.0326 23.14 61.3699 23.14C60.7166 23.14 60.1333 22.9953 59.6199 22.706C59.1066 22.4167 58.7053 22.0013 58.4159 21.46C58.1266 20.9093 57.9819 20.256 57.9819 19.5C57.9819 18.744 58.1266 18.0953 58.4159 17.554C58.7053 17.0033 59.1066 16.5833 59.6199 16.294C60.1333 16.0047 60.7166 15.86 61.3699 15.86ZM61.3699 16.826C60.8939 16.826 60.4879 16.9333 60.1519 17.148C59.8159 17.3627 59.5546 17.6707 59.3679 18.072C59.1906 18.464 59.1019 18.94 59.1019 19.5C59.1019 20.0507 59.1906 20.5267 59.3679 20.928C59.5546 21.3293 59.8159 21.6373 60.1519 21.852C60.4879 22.0667 60.8939 22.174 61.3699 22.174C61.8459 22.174 62.2519 22.0667 62.5879 21.852C62.9239 21.6373 63.1806 21.3293 63.3579 20.928C63.5446 20.5267 63.6379 20.0507 63.6379 19.5C63.6379 18.94 63.5446 18.464 63.3579 18.072C63.1806 17.6707 62.9239 17.3627 62.5879 17.148C62.2519 16.9333 61.8459 16.826 61.3699 16.826ZM66.8665 23V16H67.7765L67.9305 17.148C68.1265 16.7187 68.4111 16.3967 68.7845 16.182C69.1671 15.9673 69.6291 15.86 70.1705 15.86C70.2918 15.86 70.4225 15.8693 70.5625 15.888C70.7118 15.9067 70.8378 15.944 70.9405 16L70.7445 17.022C70.6418 16.9847 70.5298 16.9567 70.4085 16.938C70.2871 16.9193 70.1145 16.91 69.8905 16.91C69.6011 16.91 69.3071 16.994 69.0085 17.162C68.7191 17.33 68.4765 17.5867 68.2805 17.932C68.0845 18.268 67.9865 18.6973 67.9865 19.22V23H66.8665ZM73.8095 14.012V21.068C73.8095 21.4133 73.9075 21.67 74.1035 21.838C74.2995 22.006 74.5515 22.09 74.8595 22.09C75.1301 22.09 75.3635 22.0433 75.5595 21.95C75.7555 21.8567 75.9328 21.7307 76.0915 21.572L76.4835 22.51C76.2688 22.706 76.0121 22.86 75.7135 22.972C75.4241 23.084 75.0881 23.14 74.7055 23.14C74.3508 23.14 74.0195 23.0793 73.7115 22.958C73.4035 22.8273 73.1561 22.6267 72.9695 22.356C72.7921 22.076 72.6988 21.712 72.6895 21.264V14.32L73.8095 14.012ZM76.3575 16V16.966H71.2895V16H76.3575Z" fill="#545454"/>
</svg>
