<svg width="84" height="36" viewBox="0 0 84 36" fill="none" xmlns="http://www.w3.org/2000/svg">
<rect x="0.5" y="0.5" width="83" height="35" rx="5.5" fill="white"/>
<rect x="0.5" y="0.5" width="83" height="35" rx="5.5" stroke="#EEEEEE"/>
<path d="M13.6223 11.3333H16.5092C16.8543 11.3333 17.1342 11.6132 17.1342 11.9583C17.1342 12.2747 16.899 12.5362 16.594 12.5776L16.5092 12.5833H13.6223C12.6299 12.5833 11.8176 13.3543 11.7516 14.33L11.7473 14.4583V22.375C11.7473 23.3674 12.5183 24.1797 13.4939 24.2457L13.6223 24.25H21.5396C22.532 24.25 23.3443 23.479 23.4103 22.5034L23.4146 22.375V21.9602C23.4146 21.615 23.6944 21.3352 24.0396 21.3352C24.356 21.3352 24.6175 21.5703 24.6589 21.8754L24.6646 21.9602V22.375C24.6646 24.0452 23.3543 25.4094 21.7056 25.4957L21.5396 25.5H13.6223C11.9521 25.5 10.5879 24.1897 10.5016 22.541L10.4973 22.375V14.4583C10.4973 12.7881 11.8076 11.4239 13.4563 11.3377L13.6223 11.3333H16.5092H13.6223ZM20.084 13.4332V11.125C20.084 10.605 20.673 10.325 21.0731 10.6165L21.1416 10.674L26.1371 15.4656C26.3703 15.6892 26.3915 16.0484 26.2008 16.2967L26.1372 16.3676L21.1417 21.1609C20.7665 21.5209 20.1565 21.2897 20.0899 20.7991L20.084 20.7099V18.4388L19.7977 18.4639C17.798 18.6725 15.8813 19.5732 14.0356 21.1811C13.603 21.558 12.9337 21.2017 13.0049 20.6324C13.5589 16.1994 15.8771 13.7561 19.8345 13.4496L20.084 13.4332V11.125V13.4332ZM21.334 12.5905V14.0417C21.334 14.3868 21.0542 14.6667 20.709 14.6667C17.4811 14.6667 15.4806 16.0634 14.6163 18.9643L14.5504 19.1965L14.8439 18.9991C16.7076 17.781 18.6654 17.1667 20.709 17.1667C21.0254 17.1667 21.2869 17.4018 21.3283 17.7069L21.334 17.7917V19.244L24.8017 15.9167L21.334 12.5905Z" fill="#545454"/>
<path d="M36.48 13.62C37.292 13.62 37.992 13.788 38.58 14.124C39.168 14.4507 39.658 14.936 40.05 15.58L39.112 16.308C38.7667 15.7107 38.3747 15.2907 37.936 15.048C37.5067 14.796 36.984 14.67 36.368 14.67C35.8733 14.67 35.4627 14.74 35.136 14.88C34.8187 15.02 34.5853 15.2067 34.436 15.44C34.2867 15.664 34.212 15.9207 34.212 16.21C34.212 16.5367 34.3147 16.826 34.52 17.078C34.7253 17.3207 35.136 17.512 35.752 17.652L37.754 18.1C38.6407 18.296 39.2567 18.5947 39.602 18.996C39.9567 19.388 40.134 19.878 40.134 20.466C40.134 20.9887 39.9847 21.4553 39.686 21.866C39.3967 22.2673 38.986 22.58 38.454 22.804C37.922 23.028 37.2967 23.14 36.578 23.14C35.906 23.14 35.3133 23.0513 34.8 22.874C34.296 22.6873 33.862 22.44 33.498 22.132C33.134 21.824 32.8353 21.4787 32.602 21.096L33.582 20.298C33.7593 20.6527 33.988 20.9653 34.268 21.236C34.548 21.5067 34.884 21.7167 35.276 21.866C35.6773 22.0153 36.1347 22.09 36.648 22.09C37.124 22.09 37.5347 22.034 37.88 21.922C38.2347 21.8007 38.5053 21.628 38.692 21.404C38.8787 21.1707 38.972 20.8907 38.972 20.564C38.972 20.2653 38.874 19.9993 38.678 19.766C38.482 19.5233 38.1133 19.3413 37.572 19.22L35.402 18.73C34.8327 18.5993 34.3707 18.422 34.016 18.198C33.6707 17.9647 33.4187 17.694 33.26 17.386C33.1107 17.0687 33.036 16.728 33.036 16.364C33.036 15.8693 33.1713 15.4167 33.442 15.006C33.722 14.586 34.1187 14.25 34.632 13.998C35.1547 13.746 35.7707 13.62 36.48 13.62ZM42.2708 23V12.78H43.3908V17.05C43.6334 16.63 43.9554 16.3267 44.3568 16.14C44.7581 15.9533 45.1968 15.86 45.6728 15.86C46.1768 15.86 46.6341 15.958 47.0448 16.154C47.4554 16.3407 47.7821 16.63 48.0248 17.022C48.2768 17.414 48.4028 17.9133 48.4028 18.52V23H47.2828V18.912C47.2828 18.1373 47.1148 17.6007 46.7788 17.302C46.4521 16.994 46.0461 16.84 45.5608 16.84C45.2248 16.84 44.8888 16.9193 44.5528 17.078C44.2168 17.2367 43.9368 17.498 43.7128 17.862C43.4981 18.2167 43.3908 18.6927 43.3908 19.29V23H42.2708ZM55.0267 18.478C55.0267 17.9553 54.8867 17.554 54.6067 17.274C54.3267 16.9847 53.9301 16.84 53.4167 16.84C52.9314 16.84 52.5207 16.9473 52.1847 17.162C51.8487 17.3673 51.6014 17.7033 51.4427 18.17L50.5327 17.61C50.7194 17.0873 51.0647 16.6673 51.5687 16.35C52.0727 16.0233 52.6981 15.86 53.4447 15.86C53.9487 15.86 54.4061 15.9487 54.8167 16.126C55.2274 16.294 55.5494 16.5553 55.7827 16.91C56.0254 17.2553 56.1467 17.7033 56.1467 18.254V21.642C56.1467 21.978 56.3241 22.146 56.6787 22.146C56.8561 22.146 57.0287 22.1227 57.1967 22.076L57.1407 22.958C56.9541 23.0513 56.7114 23.098 56.4127 23.098C56.1421 23.098 55.8994 23.0467 55.6847 22.944C55.4701 22.8413 55.3021 22.6873 55.1807 22.482C55.0594 22.2673 54.9987 22.0013 54.9987 21.684V21.544L55.2787 21.586C55.1667 21.95 54.9754 22.2487 54.7047 22.482C54.4341 22.706 54.1307 22.874 53.7947 22.986C53.4587 23.0887 53.1274 23.14 52.8007 23.14C52.3901 23.14 52.0074 23.07 51.6527 22.93C51.2981 22.79 51.0134 22.58 50.7987 22.3C50.5934 22.0107 50.4907 21.656 50.4907 21.236C50.4907 20.7133 50.6634 20.284 51.0087 19.948C51.3634 19.6027 51.8534 19.3693 52.4787 19.248L55.2507 18.702V19.626L52.9967 20.088C52.5394 20.1813 52.1987 20.312 51.9747 20.48C51.7507 20.648 51.6387 20.8813 51.6387 21.18C51.6387 21.4693 51.7507 21.7073 51.9747 21.894C52.2081 22.0713 52.5347 22.16 52.9547 22.16C53.2254 22.16 53.4821 22.1273 53.7247 22.062C53.9767 21.9873 54.2007 21.88 54.3967 21.74C54.5927 21.5907 54.7467 21.4087 54.8587 21.194C54.9707 20.97 55.0267 20.7087 55.0267 20.41V18.478ZM58.8684 23V16H59.7784L59.9324 17.148C60.1284 16.7187 60.4131 16.3967 60.7864 16.182C61.1691 15.9673 61.6311 15.86 62.1724 15.86C62.2937 15.86 62.4244 15.8693 62.5644 15.888C62.7137 15.9067 62.8397 15.944 62.9424 16L62.7464 17.022C62.6437 16.9847 62.5317 16.9567 62.4104 16.938C62.2891 16.9193 62.1164 16.91 61.8924 16.91C61.6031 16.91 61.3091 16.994 61.0104 17.162C60.7211 17.33 60.4784 17.5867 60.2824 17.932C60.0864 18.268 59.9884 18.6973 59.9884 19.22V23H58.8684ZM67.2905 23.14C66.6278 23.14 66.0352 22.9953 65.5125 22.706C64.9992 22.4167 64.5978 22.0013 64.3085 21.46C64.0192 20.9093 63.8745 20.256 63.8745 19.5C63.8745 18.744 64.0192 18.0953 64.3085 17.554C64.5978 17.0033 64.9945 16.5833 65.4985 16.294C66.0025 16.0047 66.5765 15.86 67.2205 15.86C67.8738 15.86 68.4292 16 68.8865 16.28C69.3532 16.56 69.7078 16.9427 69.9505 17.428C70.1932 17.904 70.3145 18.4407 70.3145 19.038C70.3145 19.1967 70.3098 19.3413 70.3005 19.472C70.2912 19.6027 70.2772 19.7193 70.2585 19.822H64.6025V18.828H69.7685L69.1945 18.94C69.1945 18.268 69.0078 17.75 68.6345 17.386C68.2705 17.022 67.7898 16.84 67.1925 16.84C66.7352 16.84 66.3385 16.9473 66.0025 17.162C65.6758 17.3673 65.4192 17.6707 65.2325 18.072C65.0552 18.464 64.9665 18.94 64.9665 19.5C64.9665 20.0507 65.0598 20.5267 65.2465 20.928C65.4332 21.3293 65.6945 21.6373 66.0305 21.852C66.3758 22.0573 66.7865 22.16 67.2625 22.16C67.7758 22.16 68.1912 22.062 68.5085 21.866C68.8352 21.67 69.0965 21.404 69.2925 21.068L70.1745 21.586C69.9972 21.9033 69.7685 22.1787 69.4885 22.412C69.2178 22.6453 68.8958 22.8273 68.5225 22.958C68.1585 23.0793 67.7478 23.14 67.2905 23.14Z" fill="#545454"/>
</svg>
