<svg width="90" height="36" viewBox="0 0 90 36" fill="none" xmlns="http://www.w3.org/2000/svg">
<rect x="0.5" y="0.5" width="89" height="35" rx="5.5" fill="white"/>
<rect x="0.5" y="0.5" width="89" height="35" rx="5.5" stroke="#EEEEEE"/>
<path d="M23.2082 25.0833C23.5533 25.0832 23.8333 25.363 23.8333 25.7082C23.8333 26.0533 23.5537 26.3332 23.2085 26.3333L12.3752 26.3365C12.03 26.3366 11.75 26.0568 11.75 25.7117C11.75 25.3665 12.0296 25.0866 12.3748 25.0865L23.2082 25.0833ZM17.7069 9.6765L17.7917 9.67079C18.1081 9.67079 18.3696 9.90592 18.411 10.211L18.4167 10.2958L18.4158 21.7L21.5173 18.5997C21.7393 18.3778 22.0865 18.3577 22.3311 18.5393L22.4012 18.5998C22.6231 18.8217 22.6432 19.1689 22.4617 19.4136L22.4011 19.4837L18.2364 23.6475C18.0146 23.8692 17.6677 23.8895 17.423 23.7082L17.3529 23.6478L13.1834 19.4839C12.9391 19.24 12.9388 18.8443 13.1828 18.6C13.4045 18.378 13.7517 18.3576 13.9965 18.539L14.0666 18.5994L17.1658 21.6941L17.1667 10.2958C17.1667 9.97938 17.4018 9.71788 17.7069 9.6765L17.7917 9.67079L17.7069 9.6765Z" fill="#545454"/>
<path d="M34.632 13.76V23H33.512V13.76H34.632ZM37.3762 23V16H38.3562L38.4262 17.092C38.6782 16.6627 39.0049 16.35 39.4062 16.154C39.8169 15.958 40.2369 15.86 40.6662 15.86C41.1609 15.86 41.6276 15.972 42.0662 16.196C42.5049 16.42 42.8409 16.7653 43.0742 17.232C43.2236 16.9147 43.4336 16.658 43.7042 16.462C43.9749 16.2567 44.2689 16.1073 44.5862 16.014C44.9129 15.9113 45.2209 15.86 45.5102 15.86C45.9582 15.86 46.3829 15.9533 46.7842 16.14C47.1949 16.3267 47.5309 16.616 47.7922 17.008C48.0536 17.4 48.1842 17.904 48.1842 18.52V23H47.0642V18.632C47.0642 17.9973 46.9056 17.54 46.5882 17.26C46.2709 16.98 45.8789 16.84 45.4122 16.84C45.0482 16.84 44.7076 16.9287 44.3902 17.106C44.0729 17.2833 43.8162 17.5447 43.6202 17.89C43.4336 18.2353 43.3402 18.66 43.3402 19.164V23H42.2202V18.632C42.2202 17.9973 42.0616 17.54 41.7442 17.26C41.4269 16.98 41.0349 16.84 40.5682 16.84C40.2602 16.84 39.9429 16.924 39.6162 17.092C39.2989 17.2507 39.0329 17.5073 38.8182 17.862C38.6036 18.2167 38.4962 18.6833 38.4962 19.262V23H37.3762ZM50.72 25.94V16H51.7L51.798 17.708L51.644 17.512C51.7653 17.1853 51.9473 16.9007 52.19 16.658C52.4326 16.406 52.7266 16.21 53.072 16.07C53.4173 15.93 53.7906 15.86 54.192 15.86C54.7613 15.86 55.284 16.0047 55.76 16.294C56.2453 16.5833 56.6326 16.9987 56.922 17.54C57.2113 18.0813 57.356 18.7347 57.356 19.5C57.356 20.256 57.2066 20.9093 56.908 21.46C56.6186 22.0013 56.2313 22.4167 55.746 22.706C55.2606 22.9953 54.7286 23.14 54.15 23.14C53.5713 23.14 53.0626 23 52.624 22.72C52.1946 22.4307 51.8866 22.0667 51.7 21.628L51.84 21.418V25.94H50.72ZM54.038 22.16C54.7286 22.16 55.2653 21.9173 55.648 21.432C56.04 20.9467 56.236 20.3027 56.236 19.5C56.236 18.6973 56.0446 18.0533 55.662 17.568C55.2886 17.0827 54.7613 16.84 54.08 16.84C53.632 16.84 53.24 16.952 52.904 17.176C52.568 17.3907 52.3066 17.6987 52.12 18.1C51.9333 18.492 51.84 18.9587 51.84 19.5C51.84 20.032 51.9286 20.4987 52.106 20.9C52.2926 21.3013 52.5493 21.614 52.876 21.838C53.212 22.0527 53.5993 22.16 54.038 22.16ZM62.3953 15.86C63.058 15.86 63.6413 16.0047 64.1453 16.294C64.6586 16.5833 65.06 17.0033 65.3493 17.554C65.6386 18.0953 65.7833 18.744 65.7833 19.5C65.7833 20.256 65.6386 20.9093 65.3493 21.46C65.06 22.0013 64.6586 22.4167 64.1453 22.706C63.6413 22.9953 63.058 23.14 62.3953 23.14C61.742 23.14 61.1586 22.9953 60.6453 22.706C60.132 22.4167 59.7306 22.0013 59.4413 21.46C59.152 20.9093 59.0073 20.256 59.0073 19.5C59.0073 18.744 59.152 18.0953 59.4413 17.554C59.7306 17.0033 60.132 16.5833 60.6453 16.294C61.1586 16.0047 61.742 15.86 62.3953 15.86ZM62.3953 16.826C61.9193 16.826 61.5133 16.9333 61.1773 17.148C60.8413 17.3627 60.58 17.6707 60.3933 18.072C60.216 18.464 60.1273 18.94 60.1273 19.5C60.1273 20.0507 60.216 20.5267 60.3933 20.928C60.58 21.3293 60.8413 21.6373 61.1773 21.852C61.5133 22.0667 61.9193 22.174 62.3953 22.174C62.8713 22.174 63.2773 22.0667 63.6133 21.852C63.9493 21.6373 64.206 21.3293 64.3833 20.928C64.57 20.5267 64.6633 20.0507 64.6633 19.5C64.6633 18.94 64.57 18.464 64.3833 18.072C64.206 17.6707 63.9493 17.3627 63.6133 17.148C63.2773 16.9333 62.8713 16.826 62.3953 16.826ZM67.8918 23V16H68.8018L68.9558 17.148C69.1518 16.7187 69.4365 16.3967 69.8098 16.182C70.1925 15.9673 70.6545 15.86 71.1958 15.86C71.3172 15.86 71.4478 15.8693 71.5878 15.888C71.7372 15.9067 71.8632 15.944 71.9658 16L71.7698 17.022C71.6672 16.9847 71.5552 16.9567 71.4338 16.938C71.3125 16.9193 71.1398 16.91 70.9158 16.91C70.6265 16.91 70.3325 16.994 70.0338 17.162C69.7445 17.33 69.5018 17.5867 69.3058 17.932C69.1098 18.268 69.0118 18.6973 69.0118 19.22V23H67.8918ZM74.8349 14.012V21.068C74.8349 21.4133 74.9329 21.67 75.1289 21.838C75.3249 22.006 75.5769 22.09 75.8849 22.09C76.1555 22.09 76.3889 22.0433 76.5849 21.95C76.7809 21.8567 76.9582 21.7307 77.1169 21.572L77.5089 22.51C77.2942 22.706 77.0375 22.86 76.7389 22.972C76.4495 23.084 76.1135 23.14 75.7309 23.14C75.3762 23.14 75.0449 23.0793 74.7369 22.958C74.4289 22.8273 74.1815 22.6267 73.9949 22.356C73.8175 22.076 73.7242 21.712 73.7149 21.264V14.32L74.8349 14.012ZM77.3829 16V16.966H72.3149V16H77.3829Z" fill="#545454"/>
</svg>
