<svg width="124" height="32" viewBox="0 0 124 32" fill="none" xmlns="http://www.w3.org/2000/svg">
<rect width="124" height="32" fill="#FAC2AF"/>
<path d="M23 10C23.2761 10 23.5 10.2239 23.5 10.5V14.3333H25.1636C26.1761 14.3333 26.9969 15.1541 26.9969 16.1667V20.2944L28.1466 19.1462C28.342 18.9511 28.6586 18.9513 28.8537 19.1467C29.0489 19.3421 29.0487 19.6587 28.8533 19.8538L26.8502 21.8541C26.6549 22.0492 26.3385 22.0491 26.1434 21.8539L24.143 19.8536C23.9478 19.6583 23.9478 19.3417 24.143 19.1464C24.3383 18.9512 24.6549 18.9512 24.8501 19.1464L25.9969 20.2932V16.1667C25.9969 15.7064 25.6238 15.3333 25.1636 15.3333H20.8332C20.373 15.3333 19.9999 15.7064 19.9999 16.1667V20.2932L21.1467 19.1464C21.3419 18.9512 21.6585 18.9512 21.8538 19.1464C22.049 19.3417 22.049 19.6583 21.8538 19.8536L19.8534 21.8539C19.6582 22.0492 19.3416 22.0492 19.1463 21.8539L17.146 19.8536C16.9507 19.6583 16.9507 19.3417 17.146 19.1465C17.3412 18.9512 17.6578 18.9512 17.8531 19.1464L18.9999 20.2932V16.1667C18.9999 15.1541 19.8207 14.3333 20.8332 14.3333H22.5V10.5C22.5 10.2239 22.7238 10 23 10Z" fill="white"/>
<path d="M36.372 21V11.76H43.064V13.048H37.87V15.708H41.93V16.968H37.87V19.712H43.26V21H36.372ZM46.1544 14L48.1284 16.996L48.4084 17.038L51.2504 21H49.4724L47.4144 17.92L47.0924 17.808L44.3484 14H46.1544ZM51.2084 14L48.4644 17.752L48.1564 17.738L45.9164 21H44.2084L47.1904 17.01L47.4844 17.038L49.4864 14H51.2084ZM54.8037 11.942V18.9C54.8037 19.2453 54.8923 19.4973 55.0697 19.656C55.2563 19.8147 55.5037 19.894 55.8117 19.894C56.0637 19.894 56.283 19.8567 56.4697 19.782C56.6563 19.698 56.829 19.586 56.9877 19.446L57.3237 20.538C57.109 20.7247 56.843 20.874 56.5257 20.986C56.2177 21.0887 55.8723 21.14 55.4897 21.14C55.0883 21.14 54.7197 21.0747 54.3837 20.944C54.0477 20.8133 53.7863 20.6033 53.5997 20.314C53.413 20.0153 53.315 19.628 53.3057 19.152V12.362L54.8037 11.942ZM57.2117 14V15.176H51.9617V14H57.2117ZM58.6933 21V14H59.9673L60.1073 15.26C60.2939 14.8027 60.5693 14.4573 60.9333 14.224C61.3066 13.9813 61.7639 13.86 62.3053 13.86C62.4453 13.86 62.5853 13.874 62.7253 13.902C62.8653 13.9207 62.9819 13.9533 63.0753 14L62.8653 15.316C62.7626 15.2787 62.6459 15.2507 62.5153 15.232C62.3939 15.204 62.2259 15.19 62.0113 15.19C61.7219 15.19 61.4373 15.2693 61.1573 15.428C60.8773 15.5773 60.6439 15.806 60.4573 16.114C60.2799 16.422 60.1913 16.814 60.1913 17.29V21H58.6933ZM68.3857 16.506C68.3857 16.0393 68.2551 15.68 67.9937 15.428C67.7417 15.1667 67.3917 15.036 66.9437 15.036C66.5237 15.036 66.1644 15.134 65.8657 15.33C65.5671 15.526 65.3477 15.8433 65.2077 16.282L63.9477 15.75C64.1251 15.1807 64.4704 14.7233 64.9837 14.378C65.5064 14.0327 66.1784 13.86 66.9997 13.86C67.5597 13.86 68.0544 13.9533 68.4837 14.14C68.9131 14.3173 69.2491 14.588 69.4917 14.952C69.7437 15.316 69.8697 15.7827 69.8697 16.352V19.474C69.8697 19.8193 70.0424 19.992 70.3877 19.992C70.5557 19.992 70.7191 19.9687 70.8777 19.922L70.7937 20.958C70.5791 21.0607 70.3084 21.112 69.9817 21.112C69.6831 21.112 69.4124 21.0607 69.1697 20.958C68.9364 20.846 68.7497 20.6827 68.6097 20.468C68.4791 20.244 68.4137 19.9687 68.4137 19.642V19.544L68.7217 19.53C68.6377 19.894 68.4651 20.1973 68.2037 20.44C67.9424 20.6733 67.6391 20.8507 67.2937 20.972C66.9484 21.084 66.5984 21.14 66.2437 21.14C65.8051 21.14 65.4084 21.07 65.0537 20.93C64.7084 20.79 64.4331 20.58 64.2277 20.3C64.0317 20.0107 63.9337 19.656 63.9337 19.236C63.9337 18.7133 64.1017 18.284 64.4377 17.948C64.7831 17.612 65.2684 17.3833 65.8937 17.262L68.6097 16.73L68.5957 17.78L66.6217 18.186C66.2297 18.2607 65.9357 18.368 65.7397 18.508C65.5437 18.648 65.4457 18.8533 65.4457 19.124C65.4457 19.3853 65.5437 19.5953 65.7397 19.754C65.9451 19.9033 66.2157 19.978 66.5517 19.978C66.7851 19.978 67.0091 19.95 67.2237 19.894C67.4477 19.838 67.6484 19.7493 67.8257 19.628C68.0031 19.4973 68.1384 19.334 68.2317 19.138C68.3344 18.9327 68.3857 18.69 68.3857 18.41V16.506ZM75.3344 13.86C75.8944 13.86 76.3704 13.944 76.7624 14.112C77.1638 14.2707 77.4998 14.4993 77.7704 14.798C78.0411 15.0967 78.2464 15.4373 78.3864 15.82L76.9724 16.38C76.8511 15.9507 76.6551 15.624 76.3844 15.4C76.1231 15.1667 75.7778 15.05 75.3484 15.05C74.9284 15.05 74.5691 15.148 74.2704 15.344C73.9718 15.5307 73.7431 15.806 73.5844 16.17C73.4351 16.534 73.3604 16.982 73.3604 17.514C73.3604 18.0367 73.4398 18.48 73.5984 18.844C73.7571 19.208 73.9858 19.4833 74.2844 19.67C74.5831 19.8567 74.9378 19.95 75.3484 19.95C75.6658 19.95 75.9411 19.8987 76.1744 19.796C76.4078 19.684 76.5991 19.53 76.7484 19.334C76.9071 19.1287 77.0144 18.8813 77.0704 18.592L78.4284 19.054C78.2978 19.474 78.0924 19.8427 77.8124 20.16C77.5418 20.468 77.2011 20.7107 76.7904 20.888C76.3798 21.056 75.9084 21.14 75.3764 21.14C74.6858 21.14 74.0744 20.9953 73.5424 20.706C73.0104 20.4167 72.5951 20.0013 72.2964 19.46C72.0071 18.9093 71.8624 18.256 71.8624 17.5C71.8624 16.744 72.0071 16.0953 72.2964 15.554C72.5951 15.0033 73.0058 14.5833 73.5284 14.294C74.0604 14.0047 74.6624 13.86 75.3344 13.86ZM82.2158 11.942V18.9C82.2158 19.2453 82.3044 19.4973 82.4818 19.656C82.6684 19.8147 82.9158 19.894 83.2238 19.894C83.4758 19.894 83.6951 19.8567 83.8818 19.782C84.0684 19.698 84.2411 19.586 84.3998 19.446L84.7358 20.538C84.5211 20.7247 84.2551 20.874 83.9378 20.986C83.6298 21.0887 83.2844 21.14 82.9018 21.14C82.5004 21.14 82.1318 21.0747 81.7958 20.944C81.4598 20.8133 81.1984 20.6033 81.0118 20.314C80.8251 20.0153 80.7271 19.628 80.7178 19.152V12.362L82.2158 11.942ZM84.6238 14V15.176H79.3738V14H84.6238Z" fill="#695149"/>
<path d="M96.1667 16C96.1667 16.6443 95.6444 17.1667 95 17.1667C94.3557 17.1667 93.8334 16.6443 93.8334 16C93.8334 15.3557 94.3557 14.8333 95 14.8333C95.6444 14.8333 96.1667 15.3557 96.1667 16ZM100.167 16C100.167 16.6443 99.6444 17.1667 99 17.1667C98.3557 17.1667 97.8334 16.6443 97.8334 16C97.8334 15.3557 98.3557 14.8333 99 14.8333C99.6444 14.8333 100.167 15.3557 100.167 16ZM103 17.1667C103.644 17.1667 104.167 16.6443 104.167 16C104.167 15.3557 103.644 14.8333 103 14.8333C102.356 14.8333 101.833 15.3557 101.833 16C101.833 16.6443 102.356 17.1667 103 17.1667Z" fill="#AFAFAF"/>
</svg>
