<svg width="158" height="24" viewBox="0 0 158 24" fill="none" xmlns="http://www.w3.org/2000/svg">
<rect width="158" height="24" rx="4" fill="#EEEEEE"/>
<path d="M10.1667 8.66666C10.4428 8.66666 10.6667 8.89052 10.6667 9.16666C10.6667 9.4177 10.4817 9.62553 10.2406 9.66124L10.1667 9.66666H8.66667C7.378 9.66666 6.33333 10.7113 6.33333 12C6.33333 13.2426 7.30471 14.2584 8.52956 14.3294L8.66667 14.3333H10.1667C10.4428 14.3333 10.6667 14.5572 10.6667 14.8333C10.6667 15.0844 10.4817 15.2922 10.2406 15.3279L10.1667 15.3333H8.66667C6.82572 15.3333 5.33333 13.8409 5.33333 12C5.33333 10.2148 6.73664 8.75743 8.5003 8.67074L8.66667 8.66666H10.1667ZM15.3333 8.66666C17.1743 8.66666 18.6667 10.159 18.6667 12C18.6667 13.7852 17.2634 15.2426 15.4997 15.3293L15.3333 15.3333H13.8333C13.5572 15.3333 13.3333 15.1095 13.3333 14.8333C13.3333 14.5823 13.5183 14.3745 13.7594 14.3388L13.8333 14.3333H15.3333C16.622 14.3333 17.6667 13.2887 17.6667 12C17.6667 10.7574 16.6953 9.74159 15.4704 9.67062L15.3333 9.66666H13.8333C13.5572 9.66666 13.3333 9.44281 13.3333 9.16666C13.3333 8.91563 13.5183 8.7078 13.7594 8.67209L13.8333 8.66666H15.3333ZM8.66667 11.5H15.3333C15.6095 11.5 15.8333 11.7239 15.8333 12C15.8333 12.2531 15.6452 12.4623 15.4012 12.4954L15.3333 12.5H8.66667C8.39052 12.5 8.16667 12.2761 8.16667 12C8.16667 11.7469 8.35477 11.5377 8.59882 11.5046L8.66667 11.5H15.3333H8.66667Z" fill="#1A8CFF"/>
<path d="M30.408 18.34C30 18.34 29.616 18.264 29.256 18.112C28.896 17.96 28.6 17.7 28.368 17.332C28.144 16.964 28.032 16.46 28.032 15.82C28.032 15.748 28.032 15.672 28.032 15.592C28.04 15.504 28.048 15.42 28.056 15.34L28.908 15.364C28.9 15.444 28.892 15.52 28.884 15.592C28.884 15.656 28.884 15.72 28.884 15.784C28.884 16.24 28.956 16.58 29.1 16.804C29.244 17.028 29.432 17.176 29.664 17.248C29.904 17.328 30.16 17.368 30.432 17.368C30.728 17.368 31 17.328 31.248 17.248C31.496 17.168 31.696 17.06 31.848 16.924L32.16 17.812C31.968 17.98 31.7 18.108 31.356 18.196C31.02 18.292 30.704 18.34 30.408 18.34ZM28.488 7.96C29.24 7.96 29.888 8.128 30.432 8.464C30.984 8.792 31.408 9.26 31.704 9.868C32.008 10.476 32.16 11.2 32.16 12.04C32.16 12.88 32.008 13.604 31.704 14.212C31.408 14.82 30.984 15.292 30.432 15.628C29.888 15.956 29.24 16.12 28.488 16.12C27.736 16.12 27.084 15.956 26.532 15.628C25.988 15.292 25.564 14.82 25.26 14.212C24.964 13.604 24.816 12.88 24.816 12.04C24.816 11.2 24.964 10.476 25.26 9.868C25.564 9.26 25.988 8.792 26.532 8.464C27.084 8.128 27.736 7.96 28.488 7.96ZM28.488 8.86C27.944 8.86 27.472 8.988 27.072 9.244C26.672 9.492 26.364 9.856 26.148 10.336C25.932 10.808 25.824 11.376 25.824 12.04C25.824 12.704 25.932 13.276 26.148 13.756C26.364 14.228 26.672 14.592 27.072 14.848C27.472 15.096 27.944 15.22 28.488 15.22C29.04 15.22 29.512 15.096 29.904 14.848C30.304 14.592 30.612 14.228 30.828 13.756C31.044 13.276 31.152 12.704 31.152 12.04C31.152 11.376 31.044 10.808 30.828 10.336C30.612 9.856 30.304 9.492 29.904 9.244C29.512 8.988 29.04 8.86 28.488 8.86ZM36.4566 16.12C35.7526 16.12 35.1286 15.956 34.5846 15.628C34.0486 15.292 33.6846 14.832 33.4926 14.248L34.4526 13.756C34.5486 14.052 34.6806 14.312 34.8486 14.536C35.0166 14.752 35.2366 14.92 35.5086 15.04C35.7886 15.16 36.1366 15.22 36.5526 15.22C36.9046 15.22 37.2006 15.156 37.4406 15.028C37.6806 14.9 37.8646 14.728 37.9926 14.512C38.1206 14.288 38.1846 14.032 38.1846 13.744C38.1846 13.456 38.1286 13.216 38.0166 13.024C37.9126 12.832 37.7446 12.692 37.5126 12.604C37.2806 12.508 36.9766 12.46 36.6006 12.46C36.5126 12.46 36.4166 12.464 36.3126 12.472C36.2086 12.472 36.1006 12.48 35.9886 12.496V11.536C36.0606 11.544 36.1286 11.548 36.1926 11.548C36.2646 11.548 36.3286 11.548 36.3846 11.548C36.9686 11.548 37.3846 11.436 37.6326 11.212C37.8806 10.98 38.0046 10.62 38.0046 10.132C38.0046 9.716 37.8766 9.4 37.6206 9.184C37.3646 8.968 37.0006 8.86 36.5286 8.86C36.0246 8.86 35.6406 8.972 35.3766 9.196C35.1126 9.412 34.9046 9.708 34.7526 10.084L33.8406 9.652C33.9686 9.316 34.1606 9.02 34.4166 8.764C34.6726 8.508 34.9806 8.308 35.3406 8.164C35.7086 8.02 36.1126 7.948 36.5526 7.948C37.1046 7.948 37.5606 8.044 37.9206 8.236C38.2806 8.42 38.5486 8.668 38.7246 8.98C38.9086 9.292 39.0006 9.636 39.0006 10.012C39.0006 10.3 38.9606 10.56 38.8806 10.792C38.8006 11.016 38.6886 11.212 38.5446 11.38C38.4086 11.548 38.2526 11.684 38.0766 11.788C37.9006 11.884 37.7126 11.948 37.5126 11.98V12.004C37.7766 12.012 38.0086 12.064 38.2086 12.16C38.4166 12.256 38.5926 12.384 38.7366 12.544C38.8806 12.704 38.9886 12.888 39.0606 13.096C39.1406 13.296 39.1806 13.508 39.1806 13.732C39.1806 14.196 39.0646 14.608 38.8326 14.968C38.6086 15.328 38.2926 15.612 37.8846 15.82C37.4766 16.02 37.0006 16.12 36.4566 16.12ZM50.9025 8.98H46.3185V11.536H49.8945V12.436H46.3185V16H45.3585V8.08H50.9025V8.98ZM52.9827 8.848C52.7667 8.848 52.5907 8.784 52.4547 8.656C52.3267 8.52 52.2627 8.344 52.2627 8.128C52.2627 7.912 52.3267 7.74 52.4547 7.612C52.5907 7.476 52.7667 7.408 52.9827 7.408C53.1987 7.408 53.3707 7.476 53.4987 7.612C53.6347 7.74 53.7027 7.912 53.7027 8.128C53.7027 8.344 53.6347 8.52 53.4987 8.656C53.3707 8.784 53.1987 8.848 52.9827 8.848ZM53.4627 10V16H52.5027V10H53.4627ZM55.6902 16V10H56.5302L56.6142 11.344L56.4582 11.212C56.5862 10.892 56.7582 10.636 56.9742 10.444C57.1902 10.244 57.4382 10.1 57.7182 10.012C58.0062 9.924 58.3022 9.88 58.6062 9.88C59.0382 9.88 59.4302 9.964 59.7822 10.132C60.1342 10.292 60.4142 10.54 60.6222 10.876C60.8382 11.212 60.9462 11.64 60.9462 12.16V16H59.9862V12.496C59.9862 11.832 59.8422 11.372 59.5542 11.116C59.2742 10.852 58.9262 10.72 58.5102 10.72C58.2222 10.72 57.9342 10.788 57.6462 10.924C57.3582 11.06 57.1182 11.28 56.9262 11.584C56.7422 11.888 56.6502 12.296 56.6502 12.808V16H55.6902ZM66.6239 12.124C66.6239 11.676 66.5039 11.332 66.2639 11.092C66.0239 10.844 65.6839 10.72 65.2439 10.72C64.8279 10.72 64.4759 10.812 64.1879 10.996C63.8999 11.172 63.6879 11.46 63.5519 11.86L62.7719 11.38C62.9319 10.932 63.2279 10.572 63.6599 10.3C64.0919 10.02 64.6279 9.88 65.2679 9.88C65.6999 9.88 66.0919 9.956 66.4439 10.108C66.7959 10.252 67.0719 10.476 67.2719 10.78C67.4799 11.076 67.5839 11.46 67.5839 11.932V14.836C67.5839 15.124 67.7359 15.268 68.0399 15.268C68.1919 15.268 68.3399 15.248 68.4839 15.208L68.4359 15.964C68.2759 16.044 68.0679 16.084 67.8119 16.084C67.5799 16.084 67.3719 16.04 67.1879 15.952C67.0039 15.864 66.8599 15.732 66.7559 15.556C66.6519 15.372 66.5999 15.144 66.5999 14.872V14.752L66.8399 14.788C66.7439 15.1 66.5799 15.356 66.3479 15.556C66.1159 15.748 65.8559 15.892 65.5679 15.988C65.2799 16.076 64.9959 16.12 64.7159 16.12C64.3639 16.12 64.0359 16.06 63.7319 15.94C63.4279 15.82 63.1839 15.64 62.9999 15.4C62.8239 15.152 62.7359 14.848 62.7359 14.488C62.7359 14.04 62.8839 13.672 63.1799 13.384C63.4839 13.088 63.9039 12.888 64.4399 12.784L66.8159 12.316V13.108L64.8839 13.504C64.4919 13.584 64.1999 13.696 64.0079 13.84C63.8159 13.984 63.7199 14.184 63.7199 14.44C63.7199 14.688 63.8159 14.892 64.0079 15.052C64.2079 15.204 64.4879 15.28 64.8479 15.28C65.0799 15.28 65.2999 15.252 65.5079 15.196C65.7239 15.132 65.9159 15.04 66.0839 14.92C66.2519 14.792 66.3839 14.636 66.4799 14.452C66.5759 14.26 66.6239 14.036 66.6239 13.78V12.124ZM69.9168 16V10H70.7568L70.8408 11.344L70.6848 11.212C70.8128 10.892 70.9848 10.636 71.2008 10.444C71.4168 10.244 71.6648 10.1 71.9448 10.012C72.2328 9.924 72.5288 9.88 72.8328 9.88C73.2648 9.88 73.6568 9.964 74.0088 10.132C74.3608 10.292 74.6408 10.54 74.8488 10.876C75.0648 11.212 75.1728 11.64 75.1728 12.16V16H74.2128V12.496C74.2128 11.832 74.0688 11.372 73.7808 11.116C73.5008 10.852 73.1528 10.72 72.7368 10.72C72.4488 10.72 72.1608 10.788 71.8728 10.924C71.5848 11.06 71.3448 11.28 71.1528 11.584C70.9688 11.888 70.8768 12.296 70.8768 12.808V16H69.9168ZM79.8305 9.88C80.2465 9.88 80.6105 9.944 80.9225 10.072C81.2425 10.2 81.5185 10.384 81.7505 10.624C81.9825 10.864 82.1705 11.148 82.3145 11.476L81.4025 11.908C81.2745 11.524 81.0785 11.232 80.8145 11.032C80.5585 10.824 80.2225 10.72 79.8065 10.72C79.4065 10.72 79.0625 10.812 78.7745 10.996C78.4865 11.172 78.2665 11.432 78.1145 11.776C77.9625 12.112 77.8865 12.52 77.8865 13C77.8865 13.472 77.9625 13.88 78.1145 14.224C78.2665 14.568 78.4865 14.832 78.7745 15.016C79.0625 15.192 79.4065 15.28 79.8065 15.28C80.1185 15.28 80.3865 15.232 80.6105 15.136C80.8425 15.04 81.0305 14.9 81.1745 14.716C81.3265 14.532 81.4305 14.308 81.4865 14.044L82.3745 14.356C82.2385 14.724 82.0505 15.04 81.8105 15.304C81.5785 15.568 81.2945 15.772 80.9585 15.916C80.6305 16.052 80.2545 16.12 79.8305 16.12C79.2705 16.12 78.7705 15.996 78.3305 15.748C77.8905 15.5 77.5465 15.144 77.2985 14.68C77.0505 14.208 76.9265 13.648 76.9265 13C76.9265 12.352 77.0505 11.796 77.2985 11.332C77.5465 10.86 77.8905 10.5 78.3305 10.252C78.7705 10.004 79.2705 9.88 79.8305 9.88ZM84.5413 8.848C84.3253 8.848 84.1493 8.784 84.0133 8.656C83.8853 8.52 83.8213 8.344 83.8213 8.128C83.8213 7.912 83.8853 7.74 84.0133 7.612C84.1493 7.476 84.3253 7.408 84.5413 7.408C84.7573 7.408 84.9293 7.476 85.0573 7.612C85.1933 7.74 85.2613 7.912 85.2613 8.128C85.2613 8.344 85.1933 8.52 85.0573 8.656C84.9293 8.784 84.7573 8.848 84.5413 8.848ZM85.0213 10V16H84.0613V10H85.0213ZM90.7528 12.124C90.7528 11.676 90.6328 11.332 90.3928 11.092C90.1528 10.844 89.8128 10.72 89.3728 10.72C88.9568 10.72 88.6048 10.812 88.3168 10.996C88.0288 11.172 87.8168 11.46 87.6808 11.86L86.9008 11.38C87.0608 10.932 87.3568 10.572 87.7888 10.3C88.2208 10.02 88.7568 9.88 89.3968 9.88C89.8288 9.88 90.2208 9.956 90.5728 10.108C90.9248 10.252 91.2008 10.476 91.4008 10.78C91.6088 11.076 91.7128 11.46 91.7128 11.932V14.836C91.7128 15.124 91.8648 15.268 92.1688 15.268C92.3208 15.268 92.4688 15.248 92.6128 15.208L92.5648 15.964C92.4048 16.044 92.1968 16.084 91.9408 16.084C91.7088 16.084 91.5008 16.04 91.3168 15.952C91.1328 15.864 90.9888 15.732 90.8848 15.556C90.7808 15.372 90.7288 15.144 90.7288 14.872V14.752L90.9688 14.788C90.8728 15.1 90.7088 15.356 90.4768 15.556C90.2448 15.748 89.9848 15.892 89.6968 15.988C89.4088 16.076 89.1248 16.12 88.8448 16.12C88.4928 16.12 88.1648 16.06 87.8608 15.94C87.5568 15.82 87.3128 15.64 87.1288 15.4C86.9528 15.152 86.8648 14.848 86.8648 14.488C86.8648 14.04 87.0128 13.672 87.3088 13.384C87.6128 13.088 88.0328 12.888 88.5688 12.784L90.9448 12.316V13.108L89.0128 13.504C88.6208 13.584 88.3288 13.696 88.1368 13.84C87.9448 13.984 87.8488 14.184 87.8488 14.44C87.8488 14.688 87.9448 14.892 88.1368 15.052C88.3368 15.204 88.6168 15.28 88.9768 15.28C89.2088 15.28 89.4288 15.252 89.6368 15.196C89.8528 15.132 90.0448 15.04 90.2128 14.92C90.3808 14.792 90.5128 14.636 90.6088 14.452C90.7048 14.26 90.7528 14.036 90.7528 13.78V12.124ZM94.9577 7.24V14.476C94.9577 14.78 95.0137 14.992 95.1257 15.112C95.2377 15.224 95.4177 15.28 95.6657 15.28C95.8257 15.28 95.9577 15.268 96.0617 15.244C96.1657 15.22 96.3057 15.176 96.4817 15.112L96.3257 15.952C96.1977 16.008 96.0577 16.048 95.9057 16.072C95.7537 16.104 95.5977 16.12 95.4377 16.12C94.9497 16.12 94.5857 15.988 94.3457 15.724C94.1137 15.46 93.9977 15.056 93.9977 14.512V7.24H94.9577ZM104.754 7.96C105.506 7.96 106.154 8.128 106.698 8.464C107.25 8.792 107.674 9.26 107.97 9.868C108.274 10.476 108.426 11.2 108.426 12.04C108.426 12.88 108.274 13.604 107.97 14.212C107.674 14.82 107.25 15.292 106.698 15.628C106.154 15.956 105.506 16.12 104.754 16.12C104.002 16.12 103.35 15.956 102.798 15.628C102.254 15.292 101.83 14.82 101.526 14.212C101.23 13.604 101.082 12.88 101.082 12.04C101.082 11.2 101.23 10.476 101.526 9.868C101.83 9.26 102.254 8.792 102.798 8.464C103.35 8.128 104.002 7.96 104.754 7.96ZM104.754 8.86C104.21 8.86 103.738 8.988 103.338 9.244C102.938 9.492 102.63 9.856 102.414 10.336C102.198 10.808 102.09 11.376 102.09 12.04C102.09 12.704 102.198 13.276 102.414 13.756C102.63 14.228 102.938 14.592 103.338 14.848C103.738 15.096 104.21 15.22 104.754 15.22C105.306 15.22 105.778 15.096 106.17 14.848C106.57 14.592 106.878 14.228 107.094 13.756C107.31 13.276 107.418 12.704 107.418 12.04C107.418 11.376 107.31 10.808 107.094 10.336C106.878 9.856 106.57 9.492 106.17 9.244C105.778 8.988 105.306 8.86 104.754 8.86ZM114.33 10H115.338L112.842 16H111.882L109.386 10H110.478L112.374 15.028L114.33 10ZM119.101 16.12C118.533 16.12 118.025 15.996 117.577 15.748C117.137 15.5 116.793 15.144 116.545 14.68C116.297 14.208 116.173 13.648 116.173 13C116.173 12.352 116.297 11.796 116.545 11.332C116.793 10.86 117.133 10.5 117.565 10.252C117.997 10.004 118.489 9.88 119.041 9.88C119.601 9.88 120.077 10 120.469 10.24C120.869 10.48 121.173 10.808 121.381 11.224C121.589 11.632 121.693 12.092 121.693 12.604C121.693 12.74 121.689 12.864 121.681 12.976C121.673 13.088 121.661 13.188 121.645 13.276H116.797V12.424H121.225L120.733 12.52C120.733 11.944 120.573 11.5 120.253 11.188C119.941 10.876 119.529 10.72 119.017 10.72C118.625 10.72 118.285 10.812 117.997 10.996C117.717 11.172 117.497 11.432 117.337 11.776C117.185 12.112 117.109 12.52 117.109 13C117.109 13.472 117.189 13.88 117.349 14.224C117.509 14.568 117.733 14.832 118.021 15.016C118.317 15.192 118.669 15.28 119.077 15.28C119.517 15.28 119.873 15.196 120.145 15.028C120.425 14.86 120.649 14.632 120.817 14.344L121.573 14.788C121.421 15.06 121.225 15.296 120.985 15.496C120.753 15.696 120.477 15.852 120.157 15.964C119.845 16.068 119.493 16.12 119.101 16.12ZM123.518 16V10H124.298L124.43 10.984C124.598 10.616 124.842 10.34 125.162 10.156C125.49 9.972 125.886 9.88 126.35 9.88C126.454 9.88 126.566 9.888 126.686 9.904C126.814 9.92 126.922 9.952 127.01 10L126.842 10.876C126.754 10.844 126.658 10.82 126.554 10.804C126.45 10.788 126.302 10.78 126.11 10.78C125.862 10.78 125.61 10.852 125.354 10.996C125.106 11.14 124.898 11.36 124.73 11.656C124.562 11.944 124.478 12.312 124.478 12.76V16H123.518ZM132.389 10H133.397L130.901 16H129.941L127.445 10H128.537L130.433 15.028L132.389 10ZM135.131 8.848C134.915 8.848 134.739 8.784 134.603 8.656C134.475 8.52 134.411 8.344 134.411 8.128C134.411 7.912 134.475 7.74 134.603 7.612C134.739 7.476 134.915 7.408 135.131 7.408C135.347 7.408 135.519 7.476 135.647 7.612C135.783 7.74 135.851 7.912 135.851 8.128C135.851 8.344 135.783 8.52 135.647 8.656C135.519 8.784 135.347 8.848 135.131 8.848ZM135.611 10V16H134.651V10H135.611ZM140.347 16.12C139.779 16.12 139.271 15.996 138.823 15.748C138.383 15.5 138.039 15.144 137.791 14.68C137.543 14.208 137.419 13.648 137.419 13C137.419 12.352 137.543 11.796 137.791 11.332C138.039 10.86 138.379 10.5 138.811 10.252C139.243 10.004 139.735 9.88 140.287 9.88C140.847 9.88 141.323 10 141.715 10.24C142.115 10.48 142.419 10.808 142.627 11.224C142.835 11.632 142.939 12.092 142.939 12.604C142.939 12.74 142.935 12.864 142.927 12.976C142.919 13.088 142.907 13.188 142.891 13.276H138.043V12.424H142.471L141.979 12.52C141.979 11.944 141.819 11.5 141.499 11.188C141.187 10.876 140.775 10.72 140.263 10.72C139.871 10.72 139.531 10.812 139.243 10.996C138.963 11.172 138.743 11.432 138.583 11.776C138.431 12.112 138.355 12.52 138.355 13C138.355 13.472 138.435 13.88 138.595 14.224C138.755 14.568 138.979 14.832 139.267 15.016C139.563 15.192 139.915 15.28 140.323 15.28C140.763 15.28 141.119 15.196 141.391 15.028C141.671 14.86 141.895 14.632 142.063 14.344L142.819 14.788C142.667 15.06 142.471 15.296 142.231 15.496C141.999 15.696 141.723 15.852 141.403 15.964C141.091 16.068 140.739 16.12 140.347 16.12ZM152.148 10H153.216L151.128 16H150.168L148.476 11.224L146.88 16H145.92L143.832 10H144.9L146.412 14.884L148.044 10H149.004L150.636 14.884L152.148 10Z" fill="#545454"/>
</svg>
