<svg width="124" height="32" viewBox="0 0 124 32" fill="none" xmlns="http://www.w3.org/2000/svg">
<rect width="124" height="32" fill="#EEEEEE"/>
<path d="M61.7915 8.5C62.1079 8.5 62.3695 8.73501 62.4109 9.04007L62.4167 9.12487L62.4177 15.1667H68.4619C68.8071 15.1667 69.0869 15.4465 69.0869 15.7917C69.0869 16.1081 68.8518 16.3696 68.5467 16.411L68.4619 16.4167H62.4177L62.4194 22.4576C62.4194 22.8028 62.1397 23.0827 61.7945 23.0827C61.4781 23.0827 61.2165 22.8477 61.1751 22.5427L61.1694 22.4578L61.1677 16.4167H55.1268C54.7817 16.4167 54.5018 16.1368 54.5018 15.7917C54.5018 15.4753 54.737 15.2138 55.042 15.1724L55.1268 15.1667H61.1677L61.1667 9.12513C61.1666 8.77995 61.4464 8.5 61.7915 8.5Z" fill="#04071E"/>
</svg>
